<?xml version="1.0" standalone="no"?>
<!DOCTYPE svg PUBLIC "-//W3C//DTD SVG 20010904//EN"
 "http://www.w3.org/TR/2001/REC-SVG-20010904/DTD/svg10.dtd">
<svg version="1.0" xmlns="http://www.w3.org/2000/svg"
 width="512.000000pt" height="512.000000pt" viewBox="0 0 512.000000 512.000000"
 preserveAspectRatio="xMidYMid meet">

<g transform="translate(0.000000,512.000000) scale(0.100000,-0.100000)"
fill="#000000" stroke="none">
<path d="M0 2560 l0 -2560 2560 0 2560 0 0 2560 0 2560 -2560 0 -2560 0 0
-2560z m2361 1930 c136 -14 272 -42 389 -80 111 -37 360 -154 360 -170 0 -6
-36 -85 -79 -176 -44 -91 -77 -172 -74 -179 4 -12 27 -15 107 -15 180 -1 396
-39 554 -100 363 -139 694 -476 791 -805 46 -157 54 -415 20 -714 -48 -431
-103 -560 -267 -621 -86 -33 -174 -39 -511 -40 l-314 0 7 54 c19 166 -77 336
-233 410 -61 29 -74 31 -171 31 -95 -1 -111 -3 -164 -29 -154 -75 -243 -223
-234 -389 l5 -77 -392 0 -392 0 -34 42 c-83 103 -199 299 -199 337 0 24 -17 8
-60 -56 -58 -86 -161 -189 -233 -231 -72 -43 -180 -81 -254 -88 l-59 -6 -47
68 c-26 38 -47 76 -47 84 0 8 24 33 53 56 169 131 222 362 150 654 -126 507
-166 997 -99 1223 93 313 271 534 544 671 236 119 583 176 883 146z m-1271
-3119 c62 -19 62 -21 36 -87 -15 -39 -28 -58 -37 -55 -126 36 -183 40 -228 16
-47 -24 -56 -78 -18 -112 12 -12 67 -43 122 -69 125 -60 178 -110 194 -182 26
-124 -36 -234 -154 -272 -57 -19 -209 -16 -284 5 -34 10 -64 21 -66 25 -4 6
28 101 41 121 2 3 27 -2 56 -12 74 -26 183 -25 226 1 27 17 32 25 32 60 0 53
-19 70 -143 129 -152 72 -197 126 -197 236 0 67 17 109 60 153 48 48 106 63
225 58 55 -2 116 -9 135 -15z m2420 6 c0 -2 61 -173 135 -381 74 -208 135
-380 135 -382 0 -2 -35 -4 -79 -4 l-78 0 -30 83 -29 82 -119 0 -118 0 -27 -80
-27 -80 -78 -3 c-71 -3 -77 -1 -71 15 4 10 67 183 139 386 l131 367 58 0 c32
0 58 -1 58 -3z m480 -311 c0 -352 0 -354 65 -342 30 6 33 4 39 -25 9 -45 8
-77 -3 -84 -5 -3 -33 -10 -61 -15 -67 -13 -128 1 -157 35 -23 26 -23 27 -23
386 l0 359 70 0 70 0 0 -314z m320 0 c0 -352 0 -354 65 -342 30 6 33 4 39 -25
9 -45 8 -77 -3 -84 -5 -3 -33 -10 -61 -15 -67 -13 -128 1 -157 35 -23 26 -23
27 -23 386 l0 359 70 0 70 0 0 -314z m-1955 93 c59 -15 101 -58 113 -117 6
-26 8 -114 5 -197 -3 -85 -1 -169 5 -192 l10 -43 -58 0 c-58 0 -59 0 -70 36
l-12 36 -27 -26 c-34 -33 -91 -56 -139 -56 -52 0 -122 38 -145 78 -24 41 -25
117 -3 160 30 57 143 102 258 102 38 0 38 0 38 39 0 30 -6 44 -22 55 -32 23
-115 19 -209 -10 -13 -3 -21 7 -33 42 -9 26 -16 51 -16 56 0 8 86 35 135 41
62 8 127 7 170 -4z m622 -9 c72 -32 105 -108 105 -245 1 -193 -83 -302 -237
-308 -28 -1 -62 1 -77 6 l-28 7 0 -110 0 -110 -75 0 -75 0 0 385 0 385 55 0
54 0 7 -36 7 -36 25 27 c14 15 39 33 56 41 45 19 134 17 183 -6z m-1589 -134
c23 -79 42 -155 42 -168 0 -42 17 -53 23 -15 3 19 27 101 53 181 l47 146 53 0
c35 0 54 -4 57 -14 33 -86 93 -262 102 -301 7 -27 15 -43 17 -35 3 8 23 89 45
180 l39 165 68 3 c58 3 68 1 63 -12 -3 -8 -38 -120 -77 -248 -39 -128 -76
-248 -81 -265 -10 -31 -13 -33 -59 -33 -38 0 -52 4 -59 18 -16 29 -108 293
-116 332 -7 33 -8 32 -25 -35 -10 -39 -38 -124 -62 -190 l-43 -120 -55 0 -54
0 -88 275 c-48 151 -88 276 -88 278 0 1 35 2 78 2 l78 0 42 -144z"/>
<path d="M1833 3583 c-40 -8 -73 -52 -73 -97 0 -52 20 -81 65 -96 122 -40 188
136 70 186 -19 8 -36 13 -37 13 -2 -1 -13 -4 -25 -6z"/>
<path d="M1625 2714 c-47 -24 -75 -55 -107 -118 -72 -142 -77 -365 -12 -559
l16 -49 51 89 c99 173 255 560 241 598 -8 21 -85 55 -125 55 -19 0 -47 -7 -64
-16z"/>
<path d="M3436 1142 c-3 -27 -20 -91 -36 -143 -16 -52 -30 -95 -30 -96 0 -2
36 -3 79 -3 l80 0 -25 73 c-14 39 -32 103 -40 141 -8 39 -16 71 -18 73 -2 2
-6 -18 -10 -45z"/>
<path d="M2225 842 c-45 -15 -58 -30 -58 -62 0 -39 24 -60 68 -60 29 0 71 21
87 44 4 6 8 28 8 49 l0 37 -42 -1 c-24 -1 -52 -4 -63 -7z"/>
<path d="M2769 1021 c-29 -29 -29 -30 -29 -155 0 -142 2 -146 79 -146 84 0
132 89 116 218 -13 105 -100 148 -166 83z"/>
</g>
</svg>
